<svg height="512" viewBox="0 0 64 64" width="512" xmlns="http://www.w3.org/2000/svg"><g id="_25-Science" data-name="25-Science"><path d="m21 23a2.006 2.006 0 0 1 2 2 2.015 2.015 0 0 1 -2 2h-10a2.006 2.006 0 0 1 -2-2 2.015 2.015 0 0 1 2-2z" fill="#c1cfe8"/><path d="m21 40 4.71 8c-6.71.14-6.79 4.9-12.71 5.87a7.137 7.137 0 0 1 -7.94-3.77l5.94-10.1v-13h10z" fill="#edf4fa"/><path d="m29.99 55.28a7.341 7.341 0 0 1 1.01 3.72 4 4 0 0 1 -4 4h-22a4 4 0 0 1 -4-4 7.341 7.341 0 0 1 1.01-3.72l3.05-5.18a7.137 7.137 0 0 0 7.94 3.77c5.92-.97 6-5.73 12.71-5.87z" fill="#6197f2"/><circle cx="13" cy="47" fill="#598ede" r="2"/><path d="m13 48a2 2 0 0 1 -1.929-1.5 1.966 1.966 0 0 0 -.071.5 2 2 0 0 0 4 0 1.966 1.966 0 0 0 -.071-.5 2 2 0 0 1 -1.929 1.5z" fill="#4c76bd"/><path d="m22 25h-9a1 1 0 0 1 0-2h-2a2.015 2.015 0 0 0 -2 2 2.006 2.006 0 0 0 2 2h10a2.015 2.015 0 0 0 2-2 1.978 1.978 0 0 0 -.1-.583 1 1 0 0 1 -.9.583z" fill="#a8b7d4"/><path d="m7.892 53.088 6.108-13.088v-8a2 2 0 0 1 2-2h5v-3h-10v13l-5.94 10.1a7.288 7.288 0 0 0 2.832 2.988z" fill="#c1cfe8"/><path d="m27 58h-17.545a2.456 2.456 0 0 1 -2.225-3.494l.662-1.418a7.288 7.288 0 0 1 -2.832-2.988l-3.05 5.18a7.341 7.341 0 0 0 -1.01 3.72 4 4 0 0 0 4 4h22a4 4 0 0 0 4-4 7.359 7.359 0 0 0 -.6-2.91 3.985 3.985 0 0 1 -3.4 1.91z" fill="#4c76bd"/><path d="m25.677 61h-1.677a1 1 0 0 1 0-2h1.677a1.323 1.323 0 0 0 1.116-2.034l-.658-1.131a1 1 0 0 1 1.73-1l.636 1.1a3.277 3.277 0 0 1 .5 1.75 3.327 3.327 0 0 1 -3.324 3.315z" fill="#edf4fa"/><path d="m25 52.889a1 1 0 0 1 -.866-.5l-.289-.5a1 1 0 1 1 1.729-1.006l.29.5a1 1 0 0 1 -.864 1.5z" fill="#edf4fa"/><circle cx="13.5" cy="46.5" fill="#edf4fa" r=".5"/><circle cx="18" cy="5" fill="#598ede" r="2"/><circle cx="14" cy="14" fill="#598ede" r="3"/><path d="m18 5a2 2 0 0 1 -1.721-1 1.975 1.975 0 0 0 -.279 1 2 2 0 0 0 4 0 1.975 1.975 0 0 0 -.279-1 2 2 0 0 1 -1.721 1z" fill="#4c76bd"/><path d="m14 15a2.986 2.986 0 0 1 -2.817-2 3 3 0 1 0 5.634 0 2.986 2.986 0 0 1 -2.817 2z" fill="#4c76bd"/><circle cx="14.5" cy="12.5" fill="#edf4fa" r=".5"/><circle cx="18.5" cy="4.5" fill="#edf4fa" r=".5"/><path d="m27 48h6v3h-6z" fill="#5c6979"/><path d="m19 45h19.81a5.857 5.857 0 0 0 -.81 3h-16a3 3 0 0 1 -3-3z" fill="#d6e0eb"/><path d="m61 63h-44a3.995 3.995 0 0 1 4-4h36a4 4 0 0 1 4 4z" fill="#ffbe4f"/><circle cx="44" cy="48" fill="#7dcdf0" r="3"/><path d="m44 47a2.986 2.986 0 0 1 2.817 2 3 3 0 1 0 -5.634 0 2.986 2.986 0 0 1 2.817-2z" fill="#5198cc"/><circle cx="44" cy="23" fill="#7dcdf0" r="2"/><path d="m63 35.5a15.485 15.485 0 0 1 -13 15.29v-2.79a5.9 5.9 0 0 0 -.89-3.14 9.5 9.5 0 0 0 -1.12-18.85 5 5 0 0 0 .02-6 15.5 15.5 0 0 1 14.99 15.49z" fill="#d6e0eb"/><path d="m32.611 32.92-2.071 2.08-5.54-5.54 2.08-2.07z" fill="#d6e0eb"/><path d="m37.461 28.08-2.08 2.07-5.531-5.52v-.01l2.071-2.08z" fill="#5c6979"/><path d="m51.992 14.93-4.492 4.49a5.007 5.007 0 0 0 -7.081 7.08l-2.27 2.27-.69-.69-5.54-5.54-.691-.69 13.843-13.84z" fill="#edf4fa"/><path d="m56.492 9.74a.265.265 0 0 0 .06.05l.29.29-2.77 2.77-6.92-6.92 2.77-2.77.29.29a.265.265 0 0 0 .05.06z" fill="#d6e0eb"/><g fill="#598ede"><path d="m50.212 3.45a1.466 1.466 0 0 1 1.088-2.45 1.436 1.436 0 0 1 1.04.43l6.23 6.23a1.477 1.477 0 0 1 0 2.08 1.5 1.5 0 0 1 -1.04.43 1.473 1.473 0 0 1 -.98-.38.265.265 0 0 1 -.06-.05l-6.23-6.23a.265.265 0 0 1 -.048-.06z"/><path d="m47.152 5.93 6.92 6.92.35.35a1.465 1.465 0 0 1 -1.04 2.5 1.436 1.436 0 0 1 -1.04-.43l-.35-.34-6.921-6.92-.34-.35a1.461 1.461 0 0 1 0-2.08 1.462 1.462 0 0 1 2.071 0z"/><path d="m29.85 24.63 6.221 6.22-2.76 2.77-.7-.7-5.531-5.53-.7-.7 2.77-2.76z"/><path d="m46 23a2 2 0 1 0 -2 2 2.006 2.006 0 0 0 2-2zm2.01-2.99a5 5 0 0 1 -4.01 7.99 5.05 5.05 0 0 1 -3.58-1.5 5.007 5.007 0 0 1 7.08-7.08 5.573 5.573 0 0 1 .5.59z"/></g><path d="m47.99 24a4.981 4.981 0 0 1 -3.99 1.99 5.05 5.05 0 0 1 -3.58-1.5 4.98 4.98 0 0 1 -1.319-2.5 5.015 5.015 0 0 0 1.319 4.5 5.05 5.05 0 0 0 3.58 1.5 4.954 4.954 0 0 0 4.888-6 5.043 5.043 0 0 1 -.898 2.01z" fill="#4c76bd"/><path d="m47 48a3 3 0 1 0 -3 3 3 3 0 0 0 3-3zm2.11-3.14a5.9 5.9 0 0 1 .89 3.14v11h-12v-11a5.857 5.857 0 0 1 .81-3 5.988 5.988 0 0 1 9.43-1.24 5.772 5.772 0 0 1 .87 1.1z" fill="#598ede"/><path d="m23 61a1 1 0 0 1 0-2h-2a3.995 3.995 0 0 0 -4 4h44a3.965 3.965 0 0 0 -.815-2.4 1.984 1.984 0 0 1 -1.185.4z" fill="#f2a142"/><path d="m48 56h-5a2 2 0 0 1 -2-2v-8a3.986 3.986 0 0 1 3.646-3.964 5.974 5.974 0 0 0 -5.836 2.964 5.857 5.857 0 0 0 -.81 3v11h12v-5a2 2 0 0 1 -2 2z" fill="#4c76bd"/><path d="m44 44a4 4 0 1 0 4 4 4 4 0 0 0 -4-4zm0 7a3 3 0 1 1 3-3 3 3 0 0 1 -3 3z" fill="#edf4fa"/><path d="m44 21.99a2 2 0 0 1 1.928 1.5 1.923 1.923 0 0 0 .072-.5 2 2 0 1 0 -4 0 1.923 1.923 0 0 0 .072.5 2 2 0 0 1 1.928-1.5z" fill="#5198cc"/><path d="m44 20a3 3 0 1 0 3 3 3 3 0 0 0 -3-3zm0 4.99a2 2 0 1 1 2-2 2.006 2.006 0 0 1 -2 2z" fill="#edf4fa"/><path d="m52 22.51v-1.827a15.422 15.422 0 0 0 -3.99-.673 4.991 4.991 0 0 1 .99 2.99c0 .025-.006.048-.006.073a5 5 0 0 1 -1 2.937 9.5 9.5 0 0 1 1.12 18.85 5.873 5.873 0 0 1 .874 2.913c0 .077.016.15.016.227v2.79a15.108 15.108 0 0 0 2-.469v-1.831a1.991 1.991 0 0 1 1.106-1.781 12.559 12.559 0 0 0 0-22.418 1.991 1.991 0 0 1 -1.11-1.781z" fill="#a8b7d4"/><path d="m35 45v1a1 1 0 0 1 -1 1h-13a2 2 0 0 1 -1.959-1.595 2.976 2.976 0 0 0 2.959 2.595h16a5.857 5.857 0 0 1 .81-3z" fill="#a8b7d4"/><path d="m33 48h-6v3h1a2 2 0 0 1 2-2h3z" fill="#393d48"/><path d="m32.611 32.92-5.531-5.53-.922.918 3.985 3.985a1 1 0 0 1 0 1.414l-.448.448.845.845z" fill="#a8b7d4"/><path d="m29.85 24.63-.7-.7-1.187 1.183 5.18 5.18a1 1 0 0 1 0 1.414l-.873.873.341.34.7.7 2.76-2.77z" fill="#446aa9"/><path d="m37.461 28.08-5.541-5.54-1.262 1.268 3.485 3.485a1 1 0 0 1 0 1.414l-.1.1 1.342 1.339z" fill="#393d48"/><path d="m56.842 10.08-.29-.29a.265.265 0 0 1 -.06-.05l-6.23-6.23a.265.265 0 0 1 -.05-.06l-.29-.29-.956.956 4.47 4.47a2 2 0 0 1 0 2.828l-.4.4 1.036 1.036z" fill="#a8b7d4"/><path d="m58.572 7.66-.191-.191-.824.824a1 1 0 0 1 -1.414 0l-6.23-6.23a1.46 1.46 0 0 0 .3 1.387.265.265 0 0 0 .05.06l6.23 6.23a.265.265 0 0 0 .06.05 1.473 1.473 0 0 0 .98.38 1.5 1.5 0 0 0 1.04-.43 1.477 1.477 0 0 0 -.001-2.08z" fill="#446aa9"/><path d="m54.072 12.85-1.036-1.036-.479.479a1 1 0 0 1 -1.414 0l-6.532-6.532a1.441 1.441 0 0 0 .12 1.9l.34.35 6.921 6.92.35.34a1.436 1.436 0 0 0 1.04.43 1.465 1.465 0 0 0 1.04-2.5z" fill="#446aa9"/><path d="m37.461 28.08.69.69 2.27-2.27a4.96 4.96 0 0 1 -1.145-1.925l-2.66 2.66z" fill="#a8b7d4"/><path d="m46.022 17.828-.446.446a4.985 4.985 0 0 1 1.924 1.146l4.49-4.49-6.919-6.92-1.6 1.606 2.556 2.556a4 4 0 0 1 -.005 5.656z" fill="#a8b7d4"/></g></svg>