<svg id="Layer_1" enable-background="new 0 0 64 64" viewBox="0 0 64 64" xmlns="http://www.w3.org/2000/svg" width="300" height="300" version="1.1" xmlns:xlink="http://www.w3.org/1999/xlink" xmlns:svgjs="http://svgjs.dev/svgjs"><g width="100%" height="100%" transform="matrix(1,0,0,1,0,0)"><path d="m7.5019531 5.3251953c-.7319336-.8271484-.6542968-2.0913086.1728516-2.8232422.8276367-.7319336 2.0913086-.6542969 2.8232422.1728516l21.5019531 24.3066406 21.5019531-24.3066406c.7314453-.8261719 1.9951172-.9047852 2.8232422-.1728516.8271484.7319336.9042969 1.9960938.1728516 2.8232422l-23 26c-.3798828.4291992-.925293.6748047-1.4980469.6748047s-1.1181641-.2456055-1.4980469-.6748047zm46 27.3496094-21.5019531 24.3066406-21.5019531-24.3066406c-.7319336-.8271484-1.9956055-.9047852-2.8232422-.1728516-.8271484.7314453-.9047852 1.9960938-.1728516 2.8232422l23 26c.3798828.428711.925293.6748047 1.4980469.6748047s1.1181641-.2460938 1.4980469-.6748047l23-26c.7314453-.8271484.6542969-2.0917969-.1728516-2.8232422-.828125-.7324218-2.0917969-.6538086-2.8232422.1728516z" fill="#ffffff" fill-opacity="1" data-original-color="#000000ff" stroke="none" stroke-opacity="1"/></g></svg>